HIERARCHY
ROOT Hips
{
	OFFSET 0.000000 0.000000 0.000000
	CHANNELS 6 Xposition Yposition Zposition Zrotation Yrotation Xrotation 
	JOINT LHipJoint
	{
		OFFSET 0.000000 0.000000 0.000000
		CHANNELS 3 Zrotation Yrotation Xrotation
		JOINT LeftUpLeg
		{
			OFFSET 1.363060 -1.794630 0.839290
			CHANNELS 3 Zrotation Yrotation Xrotation
			JOINT LeftLeg
			{
				OFFSET 2.448110 -6.726130 0.000000
				CHANNELS 3 Zrotation Yrotation Xrotation
				JOINT LeftFoot
				{
					OFFSET 2.562200 -7.039590 0.000000
					CHANNELS 3 Zrotation Yrotation Xrotation
					JOINT LeftToeBase
					{
						OFFSET 0.157640 -0.433110 2.322550
						CHANNELS 3 Zrotation Yrotation Xrotation
						End Site
						{
							OFFSET 0.000000 0.000000 0.000000
						}
					}
				}
			}
		}
	}
	JOINT RHipJoint
	{
		OFFSET 0.000000 0.000000 0.000000
		CHANNELS 3 Zrotation Yrotation Xrotation
		JOINT RightUpLeg
		{
			OFFSET -1.305520 -1.794630 0.839290
			CHANNELS 3 Zrotation Yrotation Xrotation
			JOINT RightLeg
			{
				OFFSET -2.542530 -6.985550 0.000000
				CHANNELS 3 Zrotation Yrotation Xrotation
				JOINT RightFoot
				{
					OFFSET -2.568260 -7.056230 0.000000
					CHANNELS 3 Zrotation Yrotation Xrotation
					JOINT RightToeBase
					{
						OFFSET -0.164730 -0.452590 2.363150
						CHANNELS 3 Zrotation Yrotation Xrotation
						End Site
						{
							OFFSET 0.000000 0.000000 0.000000
						}
					}
				}
			}
		}
	}
}
MOTION
Frames: 30
Frame Time: 0.008333
15.892428 16.561646 1.789467 83.197173 -87.566336 -34.175312 -8.608780 -0.098025 4.197429 -10.167748 -9.746717 -62.805784 -2.584578 -0.386709 24.706737 3.946838 13.530528 -14.907490 -0.761900 0.000000 -42.991201 8.563548 0.271865 5.211259 2.172130 6.460716 -63.976773 2.201533 -0.565984 26.411574 -3.529495 -9.135598 -15.542817 0.229500 -0.000000 -58.194300
15.873844 16.451867 1.788105 84.131577 -87.391013 -34.304489 -8.540937 -0.112899 4.291637 -10.086723 -10.401128 -65.132012 -2.496740 -0.059930 27.722222 4.138387 13.686269 -16.362780 -1.154800 0.000000 -42.931100 8.555312 0.387288 5.311503 1.630653 6.716765 -66.541608 2.041788 -0.989560 29.925010 -3.703728 -9.224556 -17.213817 0.576600 -0.000000 -57.436500
15.855353 16.328964 1.786656 84.366340 -87.201146 -33.743077 -8.472563 -0.128149 4.395148 -9.992680 -11.077778 -67.530347 -2.391718 0.285435 30.882907 4.335089 13.850019 -17.901268 -1.584300 0.000001 -42.593600 8.557495 0.520416 5.414708 1.071574 6.929707 -69.133621 1.866554 -1.418178 33.534117 -3.883951 -9.342790 -18.972751 0.954900 0.000000 -56.405000
15.836974 16.192889 1.785162 83.983067 -86.996284 -32.577094 -8.405874 -0.146491 4.506315 -9.884397 -11.772683 -69.989138 -2.267336 0.647045 34.180182 4.534002 14.022851 -19.505270 -2.046800 0.000000 -41.980900 8.569398 0.670173 5.522046 0.497692 7.100696 -71.736796 1.674978 -1.847797 37.222701 -4.071200 -9.502997 -20.806635 1.365200 -0.000000 -55.094600
15.818713 16.044079 1.783699 83.084032 -86.774941 -30.916972 -8.342615 -0.171010 4.622501 -9.760055 -12.481753 -72.490688 -2.121444 1.021221 37.596546 4.731452 14.207128 -21.147488 -2.535500 -0.000001 -41.133700 8.590359 0.835697 5.632917 -0.086695 7.230092 -74.332503 1.466380 -2.274664 40.971242 -4.265246 -9.716269 -22.692924 1.806900 0.000000 -53.525800
15.800339 15.883294 1.782303 81.783987 -86.541481 -28.883182 -8.285196 -0.204396 4.742038 -9.615956 -13.192597 -75.016785 -1.953098 1.403938 41.111025 4.922371 14.399366 -22.798922 -3.041700 -0.000000 -40.096300 8.619154 1.013692 5.750380 -0.676833 7.329625 -76.899532 1.238968 -2.693262 44.752859 -4.466615 -9.998415 -24.600279 2.279001 0.000000 -51.744999
15.781892 15.711927 1.781031 80.182102 -86.294087 -26.582131 -8.233714 -0.249224 4.861209 -9.449338 -13.902801 -77.539611 -1.761103 1.788653 44.687594 5.103134 14.605290 -24.421102 -3.554300 -0.000001 -38.970200 8.655656 1.203893 5.869881 -1.265494 7.396406 -79.414995 0.993361 -3.100601 48.540013 -4.671873 -10.352476 -26.492061 2.778600 0.000000 -49.825500
15.763084 15.531670 1.779959 78.371414 -86.037353 -24.113540 -8.188698 -0.307136 4.977678 -9.256623 -14.601941 -80.033808 -1.546076 2.169478 48.290205 5.269734 14.824102 -25.981443 -4.062400 0.000000 -37.841101 8.698774 1.403592 5.990762 -1.845411 7.439041 -81.855821 0.729413 -3.492413 52.300145 -4.878734 -10.784467 -28.329767 3.302400 -0.000000 -47.857300
15.743607 15.344610 1.779096 76.438652 -85.774580 -21.569188 -8.150038 -0.378802 5.089128 -9.035969 -15.281291 -82.470725 -1.309729 2.540256 51.877904 5.419595 15.056921 -27.451425 -4.556600 -0.000000 -36.795500 8.747481 1.610228 6.110695 -2.408801 7.463292 -84.197963 0.448126 -3.865155 55.999308 -5.083873 -11.294069 -30.077403 3.845899 0.000000 -45.941100
15.723244 15.153126 1.778496 74.446094 -85.509733 -19.017987 -8.116969 -0.463944 5.193577 -8.786886 -15.933507 -84.823861 -1.054705 2.895684 55.411142 5.551743 15.305075 -28.811959 -5.030100 -0.000000 -35.904800 8.800494 1.821376 6.226679 -2.947824 7.473926 -86.419453 0.151546 -4.216277 59.604982 -5.283814 -11.875862 -31.705708 4.403800 0.000000 -44.175400
15.701603 14.959750 1.778180 72.450608 -85.246549 -16.520730 -8.088871 -0.561322 5.289432 -8.511493 -16.551542 -87.065594 -0.784715 3.231175 58.851342 5.666854 15.570538 -30.054388 -5.479800 -0.000001 -35.215400 8.856523 2.034216 6.335391 -3.454460 7.474026 -88.497859 -0.157058 -4.543839 63.085631 -5.475342 -12.519555 -33.195261 4.970200 0.000001 -42.647500
15.678324 14.767054 1.778157 70.486477 -84.988512 -14.116603 -8.064902 -0.669172 5.375124 -8.213708 -17.130347 -89.171097 -0.503867 3.543332 62.165655 5.767250 15.856649 -31.181201 -5.907100 -0.000000 -34.751300 8.914163 2.246217 6.432952 -3.920663 7.465152 -90.414076 -0.473351 -4.847053 66.414067 -5.655946 -13.210998 -34.538934 5.539700 0.000000 -41.423500
15.652924 14.577437 1.778430 68.595279 -84.737472 -11.848704 -8.044431 -0.784751 5.450547 -7.900701 -17.667714 -91.119561 -0.216942 3.829826 65.326247 5.856596 16.166981 -32.205567 -6.317200 0.000000 -34.506301 8.972553 2.454542 6.516695 -4.340078 7.446115 -92.152946 -0.792235 -5.125955 69.567489 -5.823970 -13.933005 -35.741553 6.107300 -0.000000 -40.542600
15.625409 14.393403 1.778994 66.795112 -84.496035 -9.741885 -8.026951 -0.906186 5.513102 -7.581431 -18.160096 -92.887621 0.071206 4.089430 68.313036 5.938932 16.505390 -33.150004 -6.719200 0.000000 -34.436400 9.030583 2.656902 6.581097 -4.702883 7.414692 -93.695836 -1.107531 -5.381464 72.526763 -5.978388 -14.666520 -36.819218 6.669600 0.000000 -40.015800
15.594933 14.216788 1.779688 65.118351 -84.262252 -7.825267 -8.012317 -1.029137 5.566689 -7.266986 -18.612129 -94.464097 0.355495 4.321379 71.107775 6.018853 16.875085 -34.036534 -7.121900 -0.000000 -34.540800 9.088677 2.850080 6.627932 -5.008346 7.367535 -95.039299 -1.414437 -5.614692 75.281931 -6.120349 -15.396983 -37.797359 7.226100 -0.000000 -39.814000
15.561762 14.049617 1.780498 63.591776 -84.037986 -6.131397 -8.000598 -1.152339 5.607011 -6.971521 -19.021182 -95.827572 0.630827 4.526238 73.702825 6.099705 17.277026 -34.895576 -7.537500 0.000000 -34.711000 9.146451 3.031998 6.650671 -5.246078 7.299563 -96.167457 -1.706158 -5.827710 77.821618 -6.249329 -16.103572 -38.703575 7.775100 -0.000001 -39.903200
15.525298 13.893223 1.781189 62.232199 -83.821112 -4.673873 -7.991988 -1.271888 5.638267 -6.706325 -19.392986 -96.975250 0.892714 4.704878 76.091003 6.183977 17.708589 -35.745855 -7.972700 0.000000 -34.921700 9.204899 3.199667 6.652466 -5.416900 7.207927 -97.084506 -1.978653 -6.022177 80.144205 -6.367120 -16.774735 -39.565711 8.318200 0.000000 -40.215000
15.485250 13.748728 1.781531 61.056314 -83.610951 -3.466494 -7.987086 -1.385203 5.661449 -6.483322 -19.728959 -97.901827 1.136986 4.858802 78.269553 6.272205 18.163288 -36.600229 -8.431200 -0.000000 -35.142800 9.264808 3.350595 6.634029 -5.519652 7.091053 -97.791761 -2.228112 -6.199549 82.249413 -6.474600 -17.399330 -40.404708 8.854500 0.000000 -40.687999
15.441527 13.617043 1.781279 60.088404 -83.407023 -2.528947 -7.986450 -1.489619 5.678592 -6.312915 -20.031009 -98.608234 1.359888 4.989880 80.236924 6.363414 18.630011 -37.463262 -8.911300 -0.000000 -35.315100 9.327140 3.482279 6.598140 -5.556602 6.947361 -98.297647 -2.451580 -6.361047 84.137612 -6.571765 -17.966064 -41.230295 9.379700 -0.000000 -41.265500
15.394039 13.498813 1.780063 59.336234 -83.209204 -1.862655 -7.990664 -1.582393 5.693626 -6.200633 -20.300268 -99.103897 1.558713 5.100076 81.991825 6.454620 19.093055 -38.323008 -9.403200 -0.000000 -35.453600 9.392633 3.592329 6.550381 -5.533649 6.779597 -98.617469 -2.647791 -6.507021 85.812248 -6.658581 -18.468273 -42.040412 9.886700 0.000000 -41.904600
15.342227 13.394435 1.777631 58.795038 -83.019093 -1.453246 -8.000431 -1.660925 5.710708 -6.147474 -20.534806 -99.402347 1.731323 5.191175 83.531981 6.541667 19.533486 -39.158347 -9.890700 0.000000 -35.580300 9.461565 3.678668 6.497245 -5.457829 6.593219 -98.769764 -2.816053 -6.636990 87.274954 -6.734403 -18.900684 -42.820842 10.364400 -0.000000 -42.581800
15.286082 13.304331 1.773736 58.453142 -82.839518 -1.280179 -8.016221 -1.722940 5.734176 -6.150156 -20.731143 -99.521027 1.876346 5.264671 84.854402 6.619772 19.931398 -39.939906 -10.352599 0.000000 -35.734500 9.533655 3.739697 6.445780 -5.337408 6.396037 -98.774651 -2.956258 -6.749784 88.526431 -6.797963 -19.259022 -43.547731 10.798500 0.000000 -43.292200
15.225242 13.228797 1.768139 58.293967 -82.674468 -1.316808 -8.038393 -1.766449 5.768204 -6.201613 -20.883738 -99.478196 1.992717 5.321463 85.953705 6.684304 20.267768 -40.635630 -10.765600 0.000000 -35.959000 9.608099 3.774193 6.403094 -5.180860 6.197876 -98.651666 -3.068444 -6.843510 89.565092 -6.848024 -19.541194 -44.193005 11.174100 0.000000 -44.042100
15.159685 13.168292 1.760916 58.269409 -82.529974 -1.507509 -8.067129 -1.789958 5.816859 -6.288795 -20.985177 -99.293215 2.080012 5.361804 86.823697 6.731566 20.527530 -41.215990 -11.108300 -0.000000 -36.285400 9.683240 3.781355 6.375293 -4.993217 6.011025 -98.416380 -3.152025 -6.915804 90.385640 -6.883782 -19.746844 -44.730365 11.478200 0.000000 -44.832500
15.089017 13.123180 1.751730 58.391812 -82.408411 -1.859486 -8.101795 -1.792449 5.879737 -6.408756 -21.030493 -98.974435 2.137423 5.385643 87.457371 6.759297 20.703089 -41.656044 -11.364400 -0.000000 -36.771000 9.758152 3.762258 6.365649 -4.786273 5.841051 -98.077727 -3.207132 -6.964629 90.984655 -6.904135 -19.877798 -45.135731 11.700200 0.000000 -45.716800
15.013321 13.094266 1.741056 58.569135 -82.317740 -2.280474 -8.142676 -1.773615 5.959738 -6.542645 -21.010187 -98.531045 2.164812 5.391760 87.846474 6.767480 20.793489 -41.947697 -11.527600 -0.000000 -37.370400 9.830238 3.715987 6.376374 -4.554790 5.701142 -97.633338 -3.231109 -6.987158 91.349125 -6.910785 -19.940005 -45.403788 11.839700 0.000001 -46.635800
14.932132 13.081950 1.728668 58.831744 -82.256589 -2.801506 -8.188321 -1.732894 6.053068 -6.694288 -20.923520 -97.958863 2.161426 5.379408 87.984420 6.758093 20.808273 -42.088556 -11.600301 0.000000 -38.112900 9.899189 3.645160 6.406309 -4.309776 5.587898 -97.078175 -3.223322 -6.982338 91.473670 -6.904454 -19.939649 -45.532788 11.898000 -0.000000 -47.647000
14.845928 13.087295 1.715011 59.109907 -82.227786 -3.363640 -8.238682 -1.670949 6.157146 -6.856943 -20.764358 -97.243311 2.126604 5.346792 87.863831 6.735019 20.762665 -42.097300 -11.596700 -0.000000 -38.909899 9.963290 3.550013 6.450790 -4.043366 5.503276 -96.386743 -3.180114 -6.948435 91.343933 -6.888578 -19.886044 -45.544553 11.888000 -0.000000 -48.670800
14.754310 13.111106 1.700224 59.399395 -82.227717 -3.973804 -8.292671 -1.587894 6.266156 -7.037676 -20.533178 -96.362446 2.059417 5.292554 87.479197 6.703287 20.676402 -41.999217 -11.536301 0.000000 -39.711700 10.022471 3.432618 6.502941 -3.755373 5.436778 -95.531902 -3.098916 -6.885282 90.950147 -6.865915 -19.785677 -45.466861 11.823600 -0.000001 -49.687800
14.657107 13.154229 1.684521 59.689791 -82.250759 -4.637164 -8.349386 -1.483920 6.373299 -7.246917 -20.231127 -95.286113 1.958938 5.215305 86.826176 6.668024 20.568992 -41.826385 -11.441800 -0.000000 -40.450800 10.077053 3.294810 6.553620 -3.442017 5.372645 -94.479326 -2.976942 -6.793337 90.282288 -6.839174 -19.642328 -45.335139 11.720200 -0.000000 -50.657400
